<mxfile host="app.diagrams.net" modified="2023-08-22T08:19:57.051Z" agent="Mozilla/5.0 (Windows NT 10.0; Win64; x64) AppleWebKit/537.36 (KHTML, like Gecko) Chrome/116.0.0.0 Safari/537.36" etag="SkQUJCTw9ZMrLpgcj_4V" version="21.6.8" type="device">
  <diagram name="Page-1" id="jEWKoF6F7qzqsp9UXutf">
    <mxGraphModel dx="794" dy="464" grid="1" gridSize="10" guides="1" tooltips="1" connect="1" arrows="1" fold="1" page="1" pageScale="1" pageWidth="1169" pageHeight="827" math="0" shadow="0">
      <root>
        <mxCell id="0" />
        <mxCell id="1" parent="0" />
        <mxCell id="X8dZMqctlb-AMBNw-lIN-1" value="" style="shape=image;verticalLabelPosition=bottom;labelBackgroundColor=default;verticalAlign=top;aspect=fixed;imageAspect=0;image=data:image/png,iVBORw0KGgoAAAANSUhEUgAAAH0AAACkCAMAAACNb9HwAAAAAXNSR0IArs4c6QAAAARnQU1BAACxjwv8YQUAAAMAUExURf////39/c/Pz7a2ttLS0uPj47e3t5ycnGxsbDw8PC4uLkBAQB4eHk5OTtHR0eHh4VVVVVNTU2VlZX5+fp6enr29vbGxsSwsLAcHBwgICJubm6urqzExMXBwcNfX17q6umJiYjIyMlBQUISEhGZmZktLS5mZmQAAAJ+fn6ioqBkZGWNjY25ubicnJw8PDzo6OpOTk9ra2kJCQqampgICAs3NzVtbW6KiouLi4ru7u2trayUlJfb29nt7e46OjszMzIGBgf7+/hwcHH19fVRUVGBgYO3t7RISEkVFRb6+vi8vL/z8/LOzswwMDN7e3llZWYWFhcPDwz09PbCwsPj4+CMjI01NTWdnZ4aGhsDAwNvb20lJSRQUFPPz8wsLC+bm5tDQ0EFBQfT09GhoaKenp93d3QMDA3d3d6SkpLKysujo6BsbG4eHhwoKCjMzM+Dg4BMTE2RkZJeXlzAwMHl5eZGRkS0tLWlpaVJSUkhISFxcXOzs7L+/v/Ly8h8fH6GhofDw8Onp6QkJCV9fX1FRUaOjo+/v76ysrIuLixYWFsHBwRERETs7O4ODg+fn539/f8fHx9/f31dXVzU1NZSUlIqKip2dnRoaGsjIyKCgoMTExOXl5fv7+yoqKikpKevr68bGxj4+PoKCgry8vPr6+piYmKWlpSsrK/n5+TY2NnJycvX19ampqZqamtjY2JCQkPHx8RAQEPf39zQ0NEdHRx0dHXx8fHp6enh4eA0NDRUVFQUFBcnJyXR0dCAgIAEBAc7Ozjc3N4iIiEpKSkNDQ1hYWI+Pj0xMTA4ODm9vb+7u7jk5OaqqqpWVldPT08rKyq+vr09PT9XV1dTU1FZWVhcXFyYmJtbW1rm5uRgYGLi4uMvLy3FxcSQkJF1dXcLCwq6ururq6omJiW1tbVpaWnV1ddnZ2SIiImFhYZKSkrS0tD8/P4CAgK2trTg4OAYGBkZGRmpqapaWlgQEBNzc3CEhIURERCgoKMXFxYyMjHNzc42NjXZ2drW1teTk5AAAADfIExIAAAEAdFJOU////////////////////////////////////////////////////////////////////////////////////////////////////////////////////////////////////////////////////////////////////////////////////////////////////////////////////////////////////////////////////////////////////////////////////////////////////////////////////////////////////////////////////wBT9wclAAAACXBIWXMAABcRAAAXEQHKJvM/AAAGv0lEQVR4Xu2bzY3kKhCAHQJBIIiBE9EgbiRCVhwReZAB51fYuG1Ddxswzb7DfNJqPa2ZKVdRv8Asf/zx/4Yznp4mYxnBSikfRPpgIgJ5hA3hzlNK0mfTcAoLhpQKBiMyW7zTGHutSDR6YI7OXXyEFHV2e2Z+wX57nEQw5tAXmUXL9DwFhKxW6XnhfmF0puMrvJyUV2wJOD3PwIdF0JdAgxauJyofNPyjye0WHlZrTMNRt1j6cjVPFqb3d5mABnVNcjXIOuAC3qxfTEGCzwmqkSHSexnVJhNj3lJQnkGaDYhsJhearf9PwRTJfWbQWZ+72UzTL2Vl0y49TMBSlJ52ELjCNFCe252fGPKOZhEu9MQyf6pyCTWzzqJXok+Y/HV+SUz2F6YWOlF4vZrZXgaaHnammp7QLLVP9fpF58kV5WvxS1yebfnMHmPxh/KWRcFhZsi7tPLOIAydBodsu349Cb95uTBYYhmj3U8sdDBGxJW3jHMu1iWfFHTWrtJkXukmKC+Qplp7CauusqpOfq680BRJI4Om1LA826tfK4/20s4l9TBVXfi18pwecSU8zTMMDJXfsSYEsB0EaA/onOKsyncuzE1/RyiVhMAoEAeiZqy/thU+7+f8V+URxfD9BhlrvWpvCFhW14ts/23lnY7vZgMNShGOfbP13TG8brj8V3zsMkDqOvGs/bDAChV2u6WQXsA/ZHtw0fVF9/IgiNfrQwPsVvqC3n6H0KnxewVp0+gp1h9meSNfwt8adB/99sEfPqkvyBZ57REi5fhagt80OTLZ2+p92mX1q858sFZCcqVFL1siSmd+bTO5VzNa34sIvdnbMnRKdR8pUw7es9Kr7W+oxuFQeDfhV/KoE3G3Y8WmLR7m9+W/hZ/ruKpYL5ENNuooB0lsfTG0F+98s6olV8dD52qAogfIerub9lb5Mlpcs7GFbCtqli+BOor2ebTIpm0epG/YZDr5XDWnfeQ9tR7gfPz+huqQvu7pbaTG+0TT/lrePlVhdo1J3oCAMaqjDQgd6w7OtSkoyrLUtqXdd/LCtpgvX732LMMyh6Fzb6/DKyEuGCkdrHIhObSsyjhF8669Dh5XvnQwUqe6o6n848N/m4hGD8WL66oIcvRVCF7+24YAm4Xc4eOH91h6qhSn3NECpGiUL3tdpjGXSFlLQztKqUzW0dt8w+qWbPgJUfQiON9oe8t5XHtAsZHvq3yO0Z4EV6KuuYLXBS8vptM+7DVaKoMd1r0rym5QlRY1g0x/QdzPIhviF8ofg8wd8gfK1/dosPJdxeUbDf0cGeT2B1bfD4E71t9Py22wFlfinYX9I20NHaZ9te0TqC17Kzr0uKNliAAg6Ns3lj7SMj+tgPhxp8vtF3PEwGtksr1oC2hpK5PzHbijOY3ix2jfdS3HjhLfdy8mih/geqIzeYzRvvtGkg30ebVv2KvJiOKfat/j8oko/uHaPzooRU+N758YD7R/VHLiTtkTQPyTX/BQun1kfFu/M/sB+cDzBxwRm07PZyboAaUaxDdrL6QKkhPaXN5LXKN4S4KXa6yEES0ya6n3HKuwv6wbMh9Ui+dSKXNYW4xp0LmuEe+CR9f4RJ07bxnsVjzH/qz2BrjMc78DQPtvHsSDx0VSFgR+qm/rK+eb8cHk6xXfCyQoLOR5D/AJ0Oi/DzynStnWqBD/2gD8bozyUfsy51uQXbwUk2gL+LVKPymTJ2DCzX4T5DSVrwczGB9xBsoPcXuAXVbRuqDD1RqCIIXWPy15MU75mLySWtZhr69uLsDP9kveB2CwUcqnuOdGab161QsRr7VcPtmB3nyM20cUDZ7qqyDrkDqt9RXIOB3na++BMWO9b3XAzTuDH1iYiccoz5Q2l7WO1TR8ER2BBmHMXpQ15+QBotX7tb4AQdd3xFXiXh7M0a3WCQi65u7oA2T1IVA7i7cvgN8NCzpFmcDemyq1N8DvRmUciN88xd0BbXlFc1KBZV6vt0lbgM6s+YLVW6BN7fg9o0y/3WltBQ8q86LrBCGaPj0+Q3e16HrQ5rfqStqQcIaYHnUpAQlnSHspu0LXDjI96TMheP2IA6/O41rw+hFV3vY5fUw4I6p8uijaCuT6ESF/udhcD/S2z7de9wLfDtTGAabvPaeH9m5AoYMetcuC0N6NMD3uNH0Ykm1hmktPbUDID0g43QflkO8GJJzuvSA8It+M2gvqA0w/pkXto+pq9c8A04+aDjqAhDOkT+pE/lPTQ9YckDS7GX45pYlfXEuqB7z+ebXsxg6aTTr51ws/bBOuA1F1T/Vn2H9Y5v74448eluU/FGuiTbo6HZAAAAAASUVORK5CYII=;" vertex="1" parent="1">
          <mxGeometry x="80" y="40" width="125" height="164" as="geometry" />
        </mxCell>
      </root>
    </mxGraphModel>
  </diagram>
</mxfile>
